# xmcd
#
# Track frame offsets:
# 150
# 16449
# 31606
# 46571
# 60499
# 78659
# 99045
# 118050
# 131873
# 149890
# 166514
# 181986
# 197182
# 211402
# 225321
# 238844
# 253243
# 272620
# 289129
# 303673
# 320485
#
# Disc length: 4424 seconds
#
#
# Revision: 0
# Processed by: cddbd v1.5.1PL0 Copyright (c) Steve Scherf et al.
# Submitted via: FreeRIP 2.942 
#
DISCID=29114615
DTITLE=Tião Carreiro and Convidados - Classicos Sertanejos
DYEAR=2005
DGENRE=Sertanejo
TTITLE0=Encantos da Natureza
TTITLE1=a vaca foi pro brejo
TTITLE2=boi soberano
TTITLE3=pombinha branca
TTITLE4=chitaozinho e xororo
TTITLE5=cabloca tereza
TTITLE6=terra tombada
TTITLE7=moreninha linda
TTITLE8=magoa de boiadeiro
TTITLE9=a mao do tempo
TTITLE10=o ipe e o prisioneiro
TTITLE11=cabloco na cidade
TTITLE12=oi paixao
TTITLE13=o mineiro e o italiano
TTITLE14=pagode em brasilia
TTITLE15=amargurado
TTITLE16=golpe de mestre
TTITLE17=porta do mundo
TTITLE18=couro de boi
TTITLE19=terra roxa
TTITLE20=calix bento
EXTD=
EXTT0=
EXTT1=
EXTT2=
EXTT3=
EXTT4=
EXTT5=
EXTT6=
EXTT7=
EXTT8=
EXTT9=
EXTT10=
EXTT11=
EXTT12=
EXTT13=
EXTT14=
EXTT15=
EXTT16=
EXTT17=
EXTT18=
EXTT19=
EXTT20=
PLAYORDER=
